<svg id="Layer_1" enable-background="new 0 0 512.003 512.003" height="512" viewBox="0 0 512.003 512.003" width="512" xmlns="http://www.w3.org/2000/svg"><g><path d="m408.001 0h-304c-13.234 0-24 10.766-24 24v468.123c0 16.65 19.28 25.796 32.193 15.601l138.849-109.618c2.919-2.304 6.995-2.304 9.915 0l138.851 109.619c12.904 10.184 32.192 1.058 32.192-15.602v-468.123c0-13.234-10.766-24-24-24zm8 492.123c0 3.251-3.764 5.029-6.279 3.043l-138.849-109.618c-8.755-6.912-20.986-6.915-29.744 0l-138.848 109.618c-2.52 1.989-6.279.204-6.279-3.043v-468.123c0-4.411 3.589-8 8-8h304c4.411 0 8 3.589 8 8v468.123z"/><path d="m351.514 149.965-56.084-8.149-25.081-50.821c-5.867-11.889-22.83-11.884-28.695 0l-25.082 50.821-56.083 8.149c-13.12 1.907-18.357 18.041-8.867 27.291l40.583 39.559-9.581 55.857c-2.241 13.068 11.486 23.032 23.215 16.867l50.163-26.372 50.163 26.372c11.734 6.17 25.455-3.806 23.215-16.867l-9.58-55.856 40.582-39.558c9.493-9.257 4.246-25.387-8.868-27.293zm-45.895 58.328c-1.886 1.838-2.746 4.486-2.301 7.081l10.291 60.002c-58.535-30.773-54.798-29.248-57.608-29.248-2.821 0 .905-1.514-57.608 29.248l10.292-60.002c.445-2.595-.415-5.243-2.301-7.081l-43.594-42.494 60.246-8.754c2.605-.379 4.858-2.015 6.023-4.376l26.915-54.642c.076.1 1.049 2.117 26.971 54.642 1.165 2.361 3.418 3.998 6.023 4.376l60.246 8.754z"/></g></svg>