<?xml version="1.0" encoding="UTF-8" standalone="no"?>
<svg
   xmlns:dc="http://purl.org/dc/elements/1.1/"
   xmlns:cc="http://creativecommons.org/ns#"
   xmlns:rdf="http://www.w3.org/1999/02/22-rdf-syntax-ns#"
   xmlns:svg="http://www.w3.org/2000/svg"
   xmlns="http://www.w3.org/2000/svg"
   xmlns:sodipodi="http://sodipodi.sourceforge.net/DTD/sodipodi-0.dtd"
   xmlns:inkscape="http://www.inkscape.org/namespaces/inkscape"
   version="1.1"
   id="Capa_1"
   x="0px"
   y="0px"
   width="30.965px"
   height="30.965px"
   viewBox="0 0 30.965 30.965"
   style="enable-background:new 0 0 30.965 30.965;"
   xml:space="preserve"
   sodipodi:docname="female-logo.svg"
   inkscape:version="1.0.1 (3bc2e813f5, 2020-09-07)"><metadata
   id="metadata945"><rdf:RDF><cc:Work
       rdf:about=""><dc:format>image/svg+xml</dc:format><dc:type
         rdf:resource="http://purl.org/dc/dcmitype/StillImage" /></cc:Work></rdf:RDF></metadata><defs
   id="defs943">
	
</defs><sodipodi:namedview
   pagecolor="#ffffff"
   bordercolor="#666666"
   borderopacity="1"
   objecttolerance="10"
   gridtolerance="10"
   guidetolerance="10"
   inkscape:pageopacity="0"
   inkscape:pageshadow="2"
   inkscape:window-width="1920"
   inkscape:window-height="986"
   id="namedview941"
   showgrid="false"
   inkscape:zoom="24.889655"
   inkscape:cx="15.4825"
   inkscape:cy="15.4825"
   inkscape:window-x="-11"
   inkscape:window-y="1609"
   inkscape:window-maximized="1"
   inkscape:current-layer="Capa_1" />
<g
   id="g906"
   style="fill:#ffffff;fill-opacity:1">
		<path
   d="m 10.366,18.426 c 0.013,-0.191 0.056,-0.385 0.077,-0.578 -2.523,1.234 -5.193,2.632 -5.905,3.343 -1.446,1.447 -1.446,3.793 0,5.238 1.443,1.445 3.789,1.445 5.234,-0.002 0.317,-0.318 0.773,-1.029 1.288,-1.939 -0.465,-1.574 -0.79,-3.33 -0.79,-5.195 0,-0.248 0.029,-0.525 0.096,-0.867 z"
   id="path890"
   style="fill:#ffffff;fill-opacity:1" />
		<path
   d="m 11.542,13.647 c 0.344,-0.841 0.735,-1.683 1.229,-2.521 C 12.275,9.911 9.36,5.893 5.755,3.725 5.312,3.906 4.897,4.175 4.537,4.536 c -1.446,1.444 -1.446,3.79 0,5.236 0.817,0.816 4.21,2.535 7.005,3.875 z"
   id="path892"
   style="fill:#ffffff;fill-opacity:1" />
		<path
   d="m 25.211,3.725 c -3.605,2.168 -6.52,6.188 -7.016,7.401 0.484,0.828 0.896,1.67 1.24,2.514 2.793,-1.34 6.174,-3.053 6.99,-3.868 C 27.872,8.326 27.872,5.98 26.429,4.536 26.07,4.175 25.654,3.905 25.211,3.725 Z"
   id="path894"
   style="fill:#ffffff;fill-opacity:1" />
		<path
   d="m 10.52,17.277 c 0.165,-1.088 0.461,-2.185 0.885,-3.282 C 8.48,12.967 4.863,11.78 3.706,11.78 1.661,11.78 0,13.439 0,15.482 c 0,2.041 1.66,3.701 3.705,3.701 1.044,0.001 4.085,-0.962 6.815,-1.906 z"
   id="path896"
   style="fill:#ffffff;fill-opacity:1" />
		<path
   d="m 27.262,11.78 c -1.156,0 -4.764,1.182 -7.684,2.21 0.424,1.104 0.721,2.207 0.887,3.293 2.727,0.941 5.756,1.9 6.797,1.9 2.043,0 3.703,-1.66 3.703,-3.701 0,-2.043 -1.66,-3.702 -3.703,-3.702 z"
   id="path898"
   style="fill:#ffffff;fill-opacity:1" />
		<path
   d="m 20.541,17.857 c 0.02,0.188 0.045,0.377 0.057,0.562 0.066,0.326 0.098,0.609 0.098,0.871 0,1.865 -0.322,3.621 -0.789,5.197 0.516,0.91 0.971,1.621 1.287,1.938 1.447,1.447 3.791,1.447 5.238,0.002 1.443,-1.443 1.443,-3.791 -0.004,-5.236 -0.711,-0.709 -3.369,-2.101 -5.887,-3.334 z"
   id="path900"
   style="fill:#ffffff;fill-opacity:1" />
		<path
   d="m 17.086,11.367 c -0.424,-0.694 4.42,-7.925 10.066,-9.727 -6.51,0.95 -11.376,5.661 -11.67,5.951 -0.011,0.01 -0.027,0.027 -0.027,0.027 0.011,-0.01 0.017,-0.017 0.027,-0.026 0.011,0.011 0.019,0.018 0.029,0.026 0,0 -0.019,-0.019 -0.027,-0.027 C 16.769,6.35 16.402,7.406 15.482,9.338 14.563,7.406 14.198,6.35 15.482,7.591 15.19,7.301 10.322,2.59 3.811,1.64 c 5.647,1.802 10.493,9.031 10.068,9.727 -1.166,1.913 -2.272,4.427 -2.444,7.199 -0.056,0.273 -0.09,0.52 -0.09,0.727 0,6.443 4.109,11.672 4.109,11.672 0,0 0.017,-0.023 0.027,-0.039 0.014,0.016 0.029,0.039 0.029,0.039 0,0 4.107,-5.229 4.107,-11.672 0,-0.207 -0.031,-0.453 -0.09,-0.727 -0.17,-2.772 -1.273,-5.286 -2.441,-7.199 z"
   id="path902"
   style="fill:#ffffff;fill-opacity:1" />
		<circle
   cx="15.511"
   cy="2.825"
   r="2.825"
   id="circle904"
   style="fill:#ffffff;fill-opacity:1" />
	</g>
<g
   id="g910">
</g>
<g
   id="g912">
</g>
<g
   id="g914">
</g>
<g
   id="g916">
</g>
<g
   id="g918">
</g>
<g
   id="g920">
</g>
<g
   id="g922">
</g>
<g
   id="g924">
</g>
<g
   id="g926">
</g>
<g
   id="g928">
</g>
<g
   id="g930">
</g>
<g
   id="g932">
</g>
<g
   id="g934">
</g>
<g
   id="g936">
</g>
<g
   id="g938">
</g>
</svg>
